<svg id="Layer_1" data-name="Layer 1" xmlns="http://www.w3.org/2000/svg" viewBox="0 0 512 512"><defs><style>.cls-1{fill:#727272;}</style></defs><title>users-chat-bubble-handdrawn</title><path class="cls-1" d="M117.44,310.72l1.9.68.79.24,1.37.4-.09,3.74-.2,15.36q-.09,22-.18,44l22.79-22.93,13.4-13.86c2.07-2.17,4.57-4.45,6.79-6.45l17.58-16,.55.08c-.06,0,.42,0,.91,0l1.37,0,5.49.13,11,.21,22.1.24,22.18.06h11.11a80.86,80.86,0,0,0,12.13-.91c33-4.45,59.86-33.77,62.41-66.63.13-1.7.18-3.57.22-5.3-.17-9.35-1-17-2.22-21.55l18.56.15,59.76,60.68q0-30.39.09-60.87v-1c0-.3-.14-.75.31-.72l.93-.25.47-.12,1.47-.51a66.44,66.44,0,0,0,12-5.23,70.47,70.47,0,0,0,20.19-16.76,87,87,0,0,0,9-13.12,70.47,70.47,0,0,0,7.41-20.06,76,76,0,0,0,1.25-10.74c.21-3.58.18-6.7.28-10.08q.29-19.92.58-40l.15-20.09,0-10.07a81,81,0,0,0-.89-11.12,72,72,0,0,0-19.59-39.5A77.06,77.06,0,0,0,423.08,9.44,75.71,75.71,0,0,0,402,2.08l-5.54-.84L390.85.93c-3.78-.2-6.85-.06-10.31-.1L360.35.8C333.47.73,306.68.52,280.13,0l-7.5,0c-26.68.3-45.09,2.83-40.58,5.59,8.61,5.24,45.1,9.05,95.33,9.78,17.31.25,35,.24,52.56.24,3.39,0,7.15-.08,10.24.08l4.6.24,4.55.7a61,61,0,0,1,17.26,6.15A58.16,58.16,0,0,1,446.18,67c.55,5.78.36,13.09.39,20v62.6a64.33,64.33,0,0,1-2.26,18.51,57.92,57.92,0,0,1-36.61,38.65l-2.26.77a18.9,18.9,0,0,1-1.92.52l-2.48.62-5,1.25-1.24.31-.62.16c-.15.1,0,.39-.07.58V251.6l-.12-.12,0-.09L352.57,210H240.34c-3.89-.06-8.41.14-11.74-.15a57.75,57.75,0,0,1-55-58.79l0-28.21.07-28.21,0-14.1,0-7,.37-6.19a61.4,61.4,0,0,1,18.33-37.24A66.1,66.1,0,0,1,208,18.77a74.43,74.43,0,0,1,17.21-6c8.86-1.21,8.54-3.54-3.12-2.9a63.63,63.63,0,0,0-46.81,28.42,65.8,65.8,0,0,0-9.73,24.2c-1.63,8.76-1.15,17.5-1.43,26.13q-.28,19.45-.56,39a25,25,0,0,0-3.73-.5L142.13,126c-3-.24-6-.1-9.07-.12-3,.38-6.14.44-9.14,1.26-21.69,4.26-41,20.9-48.67,42.54a73.59,73.59,0,0,0-4.14,24l-.46,23.6-.38,23.63a73.38,73.38,0,0,0,3.2,24.56A70.64,70.64,0,0,0,117.44,310.72ZM81.79,236.09l0-41.65a59.78,59.78,0,0,1,7.14-30.61,58.24,58.24,0,0,1,21.8-22.08A67,67,0,0,1,136,133.29c3.93-.62,8.86-.82,13.09-1.32s8.52-1,12.55-1.57c.72-.11,1.34-.23,1.88-.36l-.15,10.69c-.06,6.2-.3,12.35.19,18.9a73.63,73.63,0,0,0,4.58,18.83A69.55,69.55,0,0,0,192,208.75a68.49,68.49,0,0,0,36.72,12.64c12.73.37,25,.26,37.52.37l56.8.47c-1.59,3.69-3,9.18-4.14,16.2a133.7,133.7,0,0,1-3.19,16.7,74.55,74.55,0,0,1-7.94,18,60.35,60.35,0,0,1-20.67,20.51,57.75,57.75,0,0,1-23.61,7.87l-6.33.3h-81.4l-41.57,41.56v-7.83h0V302.22a23.3,23.3,0,0,0-2.43-.67l-5-1.25a50,50,0,0,1-6.4-1.88,32.89,32.89,0,0,1-4.33-1.73,58.38,58.38,0,0,1-26.78-24.26A56,56,0,0,1,83,255.31C81.72,249.31,81.77,243.35,81.79,236.09ZM311.08,94.35v0q-23.14,0-46.28,0a69.47,69.47,0,0,1-7.19-.24c-6.87-.72-11.85-4.53-13-9.78-.62-2.75,1.9-5.29,5.55-5.59a5,5,0,0,1,1,0c14.52,2.09,29.55-.9,43.92,2.67a6.21,6.21,0,0,0,2,.24c11.69-1.26,23.23.67,34.84,1,6.82.19,13.61.94,20.4,1.57,4.76.44,9.51,1,14.21,1.69a51.74,51.74,0,0,1,7.75,1.91,1.83,1.83,0,0,1,.39,3.34,20.09,20.09,0,0,1-12.2,3.51q-7.71-.19-15.42-.22C335.07,94.33,323.08,94.35,311.08,94.35Zm-66.56,42.37c-.18-2.75.57-5.29,1.66-5.59a.47.47,0,0,1,.31,0c4.35,2.09,8.87-.9,13.18,2.67.19.15.41.31.61.24,3.51-1.26,7,.67,10.45,1a31.52,31.52,0,0,1,6.12,1.57,27.78,27.78,0,0,1,4.26,1.69,9.25,9.25,0,0,1,2.32,1.91c.48.51.51,2.44.12,3.34-1,2.37-2.24,3.63-3.66,3.51s-3.08-.21-4.63-.22c-3.6,0-7.2,0-10.79,0v0c-4.63,0-9.26,0-13.89,0a6.4,6.4,0,0,1-2.16-.24C246.37,145.77,244.87,142,244.52,136.72ZM470.35,362a38,38,0,0,1,2.3,16.81c-.33,3.51-2.26,3.55-3.29,1a94.19,94.19,0,0,0-10.68-20.44,37.61,37.61,0,0,0-22.93-15.11,38.3,38.3,0,0,0-31,7.21A37.86,37.86,0,0,0,390,379.68h0a38.09,38.09,0,0,0,19.41,35.2,38.52,38.52,0,0,0,40.17-1.7,45.85,45.85,0,0,0,9.57-9c8.16-9.63,11.76-19.54,17.16-22.37,2.62-1.6,5.76,4.76,3.61,14.14a13,13,0,0,1-.72,2.54,57.61,57.61,0,0,1-23.32,28.09,81.34,81.34,0,0,1,39.24,26.06,82.31,82.31,0,0,1,13.74,23.76,27.67,27.67,0,0,1,2,7.25,21.17,21.17,0,0,1-.48,8,24.09,24.09,0,0,1-8.42,13,25.38,25.38,0,0,1-16.74,5.33l-15.24-.38-30.43-.95c-14.21-.44-28.42-1-42.46-1.69-7.91-.4-15.67-1.12-23.14-1.91-4.82-.51-5.09-2.44-1.17-3.34a157,157,0,0,1,36.43-3.51l46.06.22,26.87,0h3.36c1.13,0,1.56-.07,2.37-.12a14.69,14.69,0,0,0,4.08-1.2,12.76,12.76,0,0,0,5.89-5.68,10,10,0,0,0,.74-7.47,16.57,16.57,0,0,0-.9-2.46l-1.13-2.8c-.81-1.84-1.78-3.61-2.66-5.42a72.18,72.18,0,0,0-15.09-18.84l0,0c-15.5-14.1-37.13-20.85-58-18.84A75.22,75.22,0,0,0,367.49,465,76.49,76.49,0,0,0,358,481.8c-.58,1.18-.78,1.88-1.06,2.55a12.87,12.87,0,0,0-.48,2.13,12,12,0,0,0,.07,4.31,18.42,18.42,0,0,0,3.53,7.85c3.34,4.59,7.78,7.21,9.69,9.82,1,1.35-.49,2.86-4.51,3.27s-10.52-1-16-6.38a22.72,22.72,0,0,1-2.74-3.27A26.21,26.21,0,0,1,342.93,480a34.23,34.23,0,0,1,1.73-4.59c.6-1.37,1.12-2.78,1.8-4.12,1.38-2.66,2.65-5.38,4.3-7.89A88.74,88.74,0,0,1,375,437.17a86.81,86.81,0,0,1,24.12-12.08,40.87,40.87,0,0,1-9.59-9.89c-1-1.23-1.86-2.81-2.88-4-9-11.21-11.93-26.79-8.42-40.52a51.57,51.57,0,0,1,25-32.34,48,48,0,0,1,46.15-.12A45.65,45.65,0,0,1,470.35,362ZM4.42,505a20.22,20.22,0,0,1-2.57-16.92,24.19,24.19,0,0,1,1.27-3.31c.43-1,.79-1.93,1.27-2.86,1-1.84,1.86-3.73,3-5.48a62.09,62.09,0,0,1,16.8-18.21A59,59,0,0,1,39,450.58a22,22,0,0,1-1.74-2.41,28.64,28.64,0,0,0-1.7-2.53,27.79,27.79,0,0,1-5.21-24.88,31.78,31.78,0,0,1,15.56-19.51,28.3,28.3,0,0,1,27.7.48,26.1,26.1,0,0,1,11.86,14.4,19.35,19.35,0,0,1,.53,9.77c-.41,2-2.34,1.94-3.31.61-2.55-3.55-4.67-6.35-7-9.76a17.88,17.88,0,0,0-11-7.39,18.53,18.53,0,0,0-15,3.49,18.32,18.32,0,0,0-7.13,13.68h0a18.47,18.47,0,0,0,9.42,17.08,18.72,18.72,0,0,0,19.49-.82,28,28,0,0,0,4.75-4.3c4.26-4.3,8.07-9.07,13.38-10.9,2.66-1,5.6,2.93,4.33,9a7,7,0,0,1-.45,1.62,38.79,38.79,0,0,1-10.31,14.22,54.36,54.36,0,0,1,23.85,16.93,56.24,56.24,0,0,1,9.26,16.4,20.26,20.26,0,0,1,1.39,5.19,15.58,15.58,0,0,1-.39,5.85,17.52,17.52,0,0,1-6.14,9.37,18.12,18.12,0,0,1-12,3.78l-10.16-.38-20.29-.95c-9.48-.44-18.95-1-28.3-1.69-5.27-.4-10.44-1.12-15.43-1.91-3.21-.51-3.4-2.44-.78-3.34a71.35,71.35,0,0,1,24.29-3.51l30.71.22,17.91,0h2.24l1.25-.06a7.24,7.24,0,0,0,1.94-.57,5.94,5.94,0,0,0,2.73-2.62,4.08,4.08,0,0,0,.32-3.12,9.13,9.13,0,0,0-.52-1.41l-.71-1.76-1.67-3.42a45.56,45.56,0,0,0-9.52-11.88l0,0a48.24,48.24,0,0,0-36.75-11.92,47.59,47.59,0,0,0-33.69,18.63,52.72,52.72,0,0,0-6.08,10.54c-.4.79-.49,1.09-.66,1.36a7.56,7.56,0,0,0-.34.93,6,6,0,0,0-.32,2.08,11,11,0,0,0,1.2,4.83c1.48,3.26,4.26,5.87,5.62,8.47.72,1.35-.32,2.82-3.35,3.39s-8-.35-12.21-4.4A15.85,15.85,0,0,1,4.42,505Z"/></svg>